<svg x="0" y="0" width="48" height="48" version="1.1" xmlns="http://www.w3.org/2000/svg" xmlns:xlink="http://www.w3.org/1999/xlink"><defs><linearGradient x1="8.46611" y1="15.52697" x2="63.97942" y2="56.91857" gradientUnits="userSpaceOnUse" id="color-1"><stop offset="0" stop-color="#000000" stop-opacity="0.39"></stop><stop offset="1" stop-color="#000000" stop-opacity="0"></stop></linearGradient><filter id="dropshadow"><feColorMatrix type="matrix" values="0 0 0 0 .05  0 0 0 0 .15  0 0 0 0 .1  0 0 0 .8 0"></feColorMatrix> <feOffset dx="0" dy="1"></feOffset> <feGaussianBlur stdDeviation="1"></feGaussianBlur> <feComposite in="SourceGraphic"></feComposite></filter></defs><g fill="none" stroke="none" stroke-width="none" stroke-linecap="butt" stroke-linejoin="miter" stroke-miterlimit="none" stroke-dasharray="" stroke-dashoffset="0" font-family="none" font-weight="normal" font-size="none" text-anchor="start" mix-blend-mode="normal"><g fill="#000000" stroke="none" stroke-width="1" stroke-miterlimit="4" font-family="'Open Sans', sans-serif" font-size="14"></g><path d="M5,45c-1.10457,0 -2,-0.89543 -2,-2l0,-38c0,-1.10457 0.89543,-2 2,-2l38,0c1.10457,0 2,0.89543 2,2l0,38c0,1.10457 -0.89543,2 -2,2z" fill="#009688" stroke-width="1" stroke-miterlimit="10" font-family="sans-serif" font-size="12" filter="url(#dropshadow)"></path><path d="M22.65239,45l-13.35662,-13.35662c-0.51192,-0.51192 -0.82965,-1.21799 -0.82965,-1.99469c0,-1.55339 1.27096,-2.82435 2.82435,-2.82435l0.00001,0.00001c0.25418,0 0.49424,0.02824 0.72019,0.09885l6.43949,-6.42538l1.99116,1.99116l0.00001,-0.00001l-1.99116,-1.99116c-0.07061,-0.22594 -0.09885,-0.48013 -0.09885,-0.73433c0,-1.55339 1.27095,-2.82434 2.82434,-2.82435c0,0 0.00001,0 0.00001,0c0.77668,0 1.48277,0.31774 1.99468,0.82965l6.06491,6.06491c0,0 4.74881,-4.76219 4.74881,-4.76219c-0.07061,-0.22594 -0.09885,-0.46601 -0.09885,-0.7202c0,0 0,-0.00001 0,-0.00001c0.00001,-1.55338 1.27096,-2.82433 2.82434,-2.82434c0,0 0.00001,0 0.00001,0c0.77668,0 1.48277,0.31774 1.99468,0.82965l6.29577,6.29577l0,20.34761c0,1.10457 -0.89543,2 -2,2z" fill="url(#color-1)" stroke-width="1" stroke-miterlimit="10" font-family="sans-serif" font-size="12"></path><path d="M39.53389,18.35131c0,1.55339 -1.27095,2.82434 -2.82434,2.82434c-0.25419,0 -0.49426,-0.02824 -0.72021,-0.09885l-5.02733,5.01321c0.07061,0.22595 0.09885,0.48014 0.09885,0.73433c0,1.55339 -1.27095,2.82434 -2.82434,2.82434c-1.55339,0 -2.82434,-1.27095 -2.82434,-2.82434c0,-0.25419 0.02824,-0.50838 0.09885,-0.73433l-3.60104,-3.60104c-0.22595,0.07061 -0.48014,0.09885 -0.73433,0.09885c-0.25419,0 -0.50838,-0.02824 -0.73433,-0.09885l-6.42538,6.4395c0.07061,0.22595 0.09885,0.46602 0.09885,0.72021c0,1.55339 -1.27095,2.82434 -2.82434,2.82434c-1.55339,0 -2.82434,-1.27095 -2.82434,-2.82434c0,-1.55339 1.27095,-2.82434 2.82434,-2.82434c0.25419,0 0.49426,0.02824 0.72021,0.09885l6.4395,-6.42538c-0.07061,-0.22595 -0.09885,-0.48014 -0.09885,-0.73433c0,-1.55339 1.27095,-2.82434 2.82434,-2.82434c1.55339,0 2.82434,1.27095 2.82434,2.82434c0,0.25419 -0.02824,0.50838 -0.09885,0.73433l3.60104,3.60104c0.22595,-0.07061 0.48014,-0.09885 0.73433,-0.09885c0.25419,0 0.50838,0.02824 0.73433,0.09885l5.01321,-5.02733c-0.07061,-0.22595 -0.09885,-0.46602 -0.09885,-0.72021c0,-1.55339 1.27095,-2.82434 2.82434,-2.82434c1.55339,0 2.82434,1.27095 2.82434,2.82434z" fill="#ffffff" stroke="none" stroke-width="0" stroke-miterlimit="4" font-family="'Open Sans', sans-serif" font-size="14"></path></g></svg>